<svg width="74" height="71" viewBox="0 0 74 71" fill="none" xmlns="http://www.w3.org/2000/svg">
<path d="M57.5555 47.3333C59.8258 47.3333 61.6666 49.0995 61.6666 51.2778C61.6666 53.4561 59.8258 55.2222 57.5555 55.2222C56.3201 55.2222 17.6798 55.2222 16.4444 55.2222C14.174 55.2222 12.3333 53.4561 12.3333 51.2778C12.3333 49.0995 14.174 47.3333 16.4444 47.3333C17.6798 47.3333 56.3201 47.3333 57.5555 47.3333ZM57.5555 31.5556C59.8258 31.5556 61.6666 33.3217 61.6666 35.5C61.6666 37.6783 59.8258 39.4444 57.5555 39.4444C56.3201 39.4444 17.6798 39.4444 16.4444 39.4444C14.174 39.4444 12.3333 37.6783 12.3333 35.5C12.3333 33.3217 14.174 31.5556 16.4444 31.5556C17.6798 31.5556 56.3201 31.5556 57.5555 31.5556ZM57.5555 15.7778C59.8258 15.7778 61.6666 17.5439 61.6666 19.7222C61.6666 21.9005 59.8258 23.6667 57.5555 23.6667C56.3201 23.6667 17.6798 23.6667 16.4444 23.6667C14.174 23.6667 12.3333 21.9005 12.3333 19.7222C12.3333 17.5439 14.174 15.7778 16.4444 15.7778C17.6798 15.7778 56.3201 15.7778 57.5555 15.7778Z" fill="#9F7052"/>
</svg>
